STARTFONT 2.1
FONT -HP-HP System-Medium-R-Normal--23-196-85-85-P-133-ISO8859-5
SIZE 19 85 85
FONTBOUNDINGBOX 20 23 0 -5

STARTPROPERTIES 26
COPYRIGHT "Copyright (c) 1994-95, Hewlett-Packard Co. All rights reserved."
NOTICE "This Font is licensed for use on Hewlett-Packard Equipment only."
FONTNAME_REGISTRY ""
FAMILY_NAME "HP System"
FOUNDRY "HP"
WEIGHT_NAME "Medium"
SETWIDTH_NAME "Normal"
SLANT "R"
ADD_STYLE_NAME "Sans Serif"
PIXEL_SIZE 23
POINT_SIZE 196
RESOLUTION_X 85
RESOLUTION_Y 85
SPACING "P"
AVERAGE_WIDTH 133
CHARSET_REGISTRY "ISO8859"
CHARSET_ENCODING "5"
CHARSET_COLLECTIONS "ISO8859-5"
FULL_NAME "HP System23"
CAP_HEIGHT 14
X_HEIGHT 9
WEIGHT 10
QUAD_WIDTH 12
DEFAULT_CHAR 32
FONT_DESCENT 5
FONT_ASCENT 18
ENDPROPERTIES

CHARS 192

STARTCHAR space
ENCODING 32
SWIDTH 254 0
DWIDTH 6 0
BBX 1 1 0 0
BITMAP
00
ENDCHAR

STARTCHAR exclam
ENCODING 33
SWIDTH 338 0
DWIDTH 8 0
BBX 2 16 3 -1
BITMAP
C0
C0
C0
C0
C0
C0
C0
C0
C0
C0
C0
00
00
C0
C0
C0
ENDCHAR

STARTCHAR quotedbl
ENCODING 34
SWIDTH 338 0
DWIDTH 8 0
BBX 6 6 1 9
BITMAP
CC
CC
CC
CC
CC
CC
ENDCHAR

STARTCHAR numbersign
ENCODING 35
SWIDTH 635 0
DWIDTH 15 0
BBX 13 16 1 -1
BITMAP
0420
0C60
0C60
0C60
0C60
7FF8
18C0
18C0
18C0
18C0
FFF0
3180
3180
3180
3180
2100
ENDCHAR

STARTCHAR dollar
ENCODING 36
SWIDTH 508 0
DWIDTH 12 0
BBX 10 20 1 -3
BITMAP
0800
0800
0800
3F00
6B80
C980
C800
E800
7800
1E00
0F80
0980
08C0
08C0
C8C0
E980
7F00
0800
0800
0800
ENDCHAR

STARTCHAR percent
ENCODING 37
SWIDTH 720 0
DWIDTH 17 0
BBX 15 16 1 -1
BITMAP
3830
6C30
C660
C660
C6C0
6CC0
3980
0180
0300
0338
066C
06C6
0CC6
0CC6
186C
1838
ENDCHAR

STARTCHAR ampersand
ENCODING 38
SWIDTH 550 0
DWIDTH 13 0
BBX 11 16 1 -1
BITMAP
1E00
3300
6000
6000
6000
6100
3180
3FE0
6180
C180
C180
C180
C180
C180
61C0
3F00
ENDCHAR

STARTCHAR apostrophe
ENCODING 39
SWIDTH 254 0
DWIDTH 6 0
BBX 4 6 1 9
BITMAP
30
30
30
60
C0
80
ENDCHAR

STARTCHAR parenleft
ENCODING 40
SWIDTH 296 0
DWIDTH 7 0
BBX 5 18 2 -2
BITMAP
18
30
60
60
C0
C0
C0
C0
C0
C0
C0
C0
C0
C0
60
60
30
18
ENDCHAR

STARTCHAR parenright
ENCODING 41
SWIDTH 296 0
DWIDTH 7 0
BBX 5 18 0 -2
BITMAP
C0
60
30
30
18
18
18
18
18
18
18
18
18
18
30
30
60
C0
ENDCHAR

STARTCHAR asterisk
ENCODING 42
SWIDTH 677 0
DWIDTH 16 0
BBX 12 12 2 1
BITMAP
0600
4620
E670
76E0
3FC0
1F80
1F80
3FC0
76E0
E670
4620
0600
ENDCHAR

STARTCHAR plus
ENCODING 43
SWIDTH 677 0
DWIDTH 16 0
BBX 12 12 2 1
BITMAP
0600
0600
0600
0600
0600
FFF0
FFF0
0600
0600
0600
0600
0600
ENDCHAR

STARTCHAR comma
ENCODING 44
SWIDTH 254 0
DWIDTH 6 0
BBX 4 6 1 -3
BITMAP
30
30
30
60
C0
80
ENDCHAR

STARTCHAR minus
ENCODING 45
SWIDTH 677 0
DWIDTH 16 0
BBX 12 2 2 6
BITMAP
FFF0
FFF0
ENDCHAR

STARTCHAR period
ENCODING 46
SWIDTH 254 0
DWIDTH 6 0
BBX 2 3 2 0
BITMAP
C0
C0
C0
ENDCHAR

STARTCHAR slash
ENCODING 47
SWIDTH 465 0
DWIDTH 11 0
BBX 10 18 1 -2
BITMAP
00C0
00C0
0180
0180
0300
0300
0600
0600
0C00
0C00
1800
1800
3000
3000
6000
6000
C000
C000
ENDCHAR

STARTCHAR 0
ENCODING 48
SWIDTH 508 0
DWIDTH 12 0
BBX 10 14 1 0
BITMAP
1E00
7380
6180
C0C0
C0C0
C0C0
C0C0
C0C0
C0C0
C0C0
C0C0
6180
7380
1E00
ENDCHAR

STARTCHAR 1
ENCODING 49
SWIDTH 508 0
DWIDTH 12 0
BBX 6 14 3 0
BITMAP
0C
1C
3C
6C
CC
0C
0C
0C
0C
0C
0C
0C
0C
0C
ENDCHAR

STARTCHAR 2
ENCODING 50
SWIDTH 508 0
DWIDTH 12 0
BBX 10 14 1 0
BITMAP
1E00
7380
C0C0
C0C0
00C0
00C0
0180
0300
0E00
1800
3000
6000
C000
FFC0
ENDCHAR

STARTCHAR 3
ENCODING 51
SWIDTH 508 0
DWIDTH 12 0
BBX 10 14 1 0
BITMAP
1E00
7380
C0C0
C0C0
00C0
0180
0F00
0180
00C0
00C0
C0C0
C0C0
7380
1E00
ENDCHAR

STARTCHAR 4
ENCODING 52
SWIDTH 508 0
DWIDTH 12 0
BBX 11 14 1 0
BITMAP
0380
0780
0D80
0D80
1980
3180
3180
6180
C180
FFE0
0180
0180
0180
0180
ENDCHAR

STARTCHAR 5
ENCODING 53
SWIDTH 508 0
DWIDTH 12 0
BBX 10 14 1 0
BITMAP
FF80
C000
C000
C000
C000
FE00
E380
0180
00C0
00C0
00C0
C180
6380
3E00
ENDCHAR

STARTCHAR 6
ENCODING 54
SWIDTH 508 0
DWIDTH 12 0
BBX 10 14 1 0
BITMAP
1E00
7380
6180
C000
C000
DE00
F380
E180
C0C0
C0C0
C0C0
6180
7380
1E00
ENDCHAR

STARTCHAR 7
ENCODING 55
SWIDTH 508 0
DWIDTH 12 0
BBX 9 14 2 0
BITMAP
FF80
0180
0300
0300
0600
0600
0C00
0C00
1800
1800
1800
3000
3000
3000
ENDCHAR

STARTCHAR 8
ENCODING 56
SWIDTH 508 0
DWIDTH 12 0
BBX 10 14 1 0
BITMAP
1E00
3300
6180
6180
6180
3300
1E00
7380
6180
C0C0
C0C0
6180
7380
1E00
ENDCHAR

STARTCHAR 9
ENCODING 57
SWIDTH 508 0
DWIDTH 12 0
BBX 10 14 1 0
BITMAP
1E00
7380
6180
C0C0
C0C0
C0C0
61C0
73C0
1EC0
00C0
00C0
6180
7380
1E00
ENDCHAR

STARTCHAR colon
ENCODING 58
SWIDTH 254 0
DWIDTH 6 0
BBX 2 9 2 0
BITMAP
C0
C0
C0
00
00
00
C0
C0
C0
ENDCHAR

STARTCHAR semicolon
ENCODING 59
SWIDTH 296 0
DWIDTH 7 0
BBX 4 12 1 -3
BITMAP
30
30
30
00
00
00
30
30
30
60
C0
80
ENDCHAR

STARTCHAR less
ENCODING 60
SWIDTH 677 0
DWIDTH 16 0
BBX 12 12 2 1
BITMAP
0030
00F0
03C0
0F00
3C00
F000
F000
3C00
0F00
03C0
00F0
0030
ENDCHAR

STARTCHAR equal
ENCODING 61
SWIDTH 677 0
DWIDTH 16 0
BBX 12 6 2 4
BITMAP
FFF0
FFF0
0000
0000
FFF0
FFF0
ENDCHAR

STARTCHAR greater
ENCODING 62
SWIDTH 677 0
DWIDTH 16 0
BBX 12 12 2 1
BITMAP
C000
F000
3C00
0F00
03C0
00F0
00F0
03C0
0F00
3C00
F000
C000
ENDCHAR

STARTCHAR question
ENCODING 63
SWIDTH 381 0
DWIDTH 9 0
BBX 7 16 1 -1
BITMAP
7C
C6
C6
06
06
0E
1C
38
30
30
30
00
00
30
30
30
ENDCHAR

STARTCHAR at
ENCODING 64
SWIDTH 635 0
DWIDTH 15 0
BBX 13 16 1 -1
BITMAP
0FC0
3860
6030
6030
C3F0
C670
CC30
CC30
CC30
CC30
C670
C3D8
6000
6000
3860
0FC0
ENDCHAR

STARTCHAR A
ENCODING 65
SWIDTH 592 0
DWIDTH 14 0
BBX 12 14 1 0
BITMAP
0600
0600
0F00
0F00
1980
1980
1980
30C0
30C0
7FE0
6060
6060
C030
C030
ENDCHAR

STARTCHAR B
ENCODING 66
SWIDTH 508 0
DWIDTH 12 0
BBX 10 14 1 0
BITMAP
FE00
C300
C180
C180
C180
C300
FF00
C180
C0C0
C0C0
C0C0
C0C0
C180
FF00
ENDCHAR

STARTCHAR C
ENCODING 67
SWIDTH 592 0
DWIDTH 14 0
BBX 12 14 1 0
BITMAP
0F80
38E0
6030
6030
C000
C000
C000
C000
C000
C000
6030
6030
38E0
0F80
ENDCHAR

STARTCHAR D
ENCODING 68
SWIDTH 550 0
DWIDTH 13 0
BBX 11 14 1 0
BITMAP
FE00
C380
C0C0
C0C0
C060
C060
C060
C060
C060
C060
C0C0
C0C0
C380
FE00
ENDCHAR

STARTCHAR E
ENCODING 69
SWIDTH 465 0
DWIDTH 11 0
BBX 9 14 1 0
BITMAP
FF80
C000
C000
C000
C000
C000
FF80
C000
C000
C000
C000
C000
C000
FF80
ENDCHAR

STARTCHAR F
ENCODING 70
SWIDTH 465 0
DWIDTH 11 0
BBX 9 14 1 0
BITMAP
FF80
C000
C000
C000
C000
C000
FF80
C000
C000
C000
C000
C000
C000
C000
ENDCHAR

STARTCHAR G
ENCODING 71
SWIDTH 592 0
DWIDTH 14 0
BBX 12 14 1 0
BITMAP
0F80
38E0
6030
6030
C000
C000
C000
C3F0
C030
C030
6030
6030
38E0
0F80
ENDCHAR

STARTCHAR H
ENCODING 72
SWIDTH 550 0
DWIDTH 13 0
BBX 11 14 1 0
BITMAP
C060
C060
C060
C060
C060
C060
FFE0
C060
C060
C060
C060
C060
C060
C060
ENDCHAR

STARTCHAR I
ENCODING 73
SWIDTH 254 0
DWIDTH 6 0
BBX 2 14 2 0
BITMAP
C0
C0
C0
C0
C0
C0
C0
C0
C0
C0
C0
C0
C0
C0
ENDCHAR

STARTCHAR J
ENCODING 74
SWIDTH 423 0
DWIDTH 10 0
BBX 8 14 1 0
BITMAP
03
03
03
03
03
03
03
03
03
03
C3
C3
66
3C
ENDCHAR

STARTCHAR K
ENCODING 75
SWIDTH 550 0
DWIDTH 13 0
BBX 11 14 1 0
BITMAP
C0C0
C180
C300
C600
CC00
D800
F000
F800
DC00
CE00
C700
C380
C1C0
C0E0
ENDCHAR

STARTCHAR L
ENCODING 76
SWIDTH 465 0
DWIDTH 11 0
BBX 9 14 1 0
BITMAP
C000
C000
C000
C000
C000
C000
C000
C000
C000
C000
C000
C000
C000
FF80
ENDCHAR

STARTCHAR M
ENCODING 77
SWIDTH 635 0
DWIDTH 15 0
BBX 13 14 1 0
BITMAP
C018
C018
E038
E038
F078
F078
D8D8
D8D8
CD98
CF98
C718
C718
C218
C018
ENDCHAR

STARTCHAR N
ENCODING 78
SWIDTH 550 0
DWIDTH 13 0
BBX 11 14 1 0
BITMAP
C060
E060
E060
F060
D860
D860
CC60
C660
C660
C360
C1E0
C1E0
C0E0
C060
ENDCHAR

STARTCHAR O
ENCODING 79
SWIDTH 635 0
DWIDTH 15 0
BBX 13 14 1 0
BITMAP
0F80
38E0
6030
6030
C018
C018
C018
C018
C018
C018
6030
6030
38E0
0F80
ENDCHAR

STARTCHAR P
ENCODING 80
SWIDTH 465 0
DWIDTH 11 0
BBX 9 14 1 0
BITMAP
FE00
C300
C180
C180
C180
C180
C300
FE00
C000
C000
C000
C000
C000
C000
ENDCHAR

STARTCHAR Q
ENCODING 81
SWIDTH 635 0
DWIDTH 15 0
BBX 13 15 1 -1
BITMAP
0F80
38E0
6030
6030
C018
C018
C018
C018
C018
C318
61B0
60F0
38E0
0FB0
0018
ENDCHAR

STARTCHAR R
ENCODING 82
SWIDTH 465 0
DWIDTH 11 0
BBX 9 14 1 0
BITMAP
FE00
C300
C180
C180
C180
C180
C300
FE00
C600
C300
C300
C180
C180
C180
ENDCHAR

STARTCHAR S
ENCODING 83
SWIDTH 550 0
DWIDTH 13 0
BBX 11 14 1 0
BITMAP
1E00
7380
C1C0
C0C0
E000
7800
1E00
0780
01C0
00E0
C060
E060
71C0
1F00
ENDCHAR

STARTCHAR T
ENCODING 84
SWIDTH 508 0
DWIDTH 12 0
BBX 12 14 0 0
BITMAP
FFF0
0600
0600
0600
0600
0600
0600
0600
0600
0600
0600
0600
0600
0600
ENDCHAR

STARTCHAR U
ENCODING 85
SWIDTH 550 0
DWIDTH 13 0
BBX 11 14 1 0
BITMAP
C060
C060
C060
C060
C060
C060
C060
C060
C060
C060
C060
60C0
71C0
1F00
ENDCHAR

STARTCHAR V
ENCODING 86
SWIDTH 592 0
DWIDTH 14 0
BBX 12 14 1 0
BITMAP
C030
C030
6060
6060
6060
30C0
30C0
1980
1980
1980
0F00
0F00
0600
0600
ENDCHAR

STARTCHAR W
ENCODING 87
SWIDTH 804 0
DWIDTH 19 0
BBX 17 14 1 0
BITMAP
C00180
C08180
C08180
61C300
61C300
614300
336600
336600
322600
1E3C00
1E3C00
1C1C00
0C1800
0C1800
ENDCHAR

STARTCHAR X
ENCODING 88
SWIDTH 635 0
DWIDTH 15 0
BBX 15 14 0 0
BITMAP
E00E
701C
3838
1C70
0EE0
07C0
0380
0380
07C0
0EE0
1C70
3838
701C
E00E
ENDCHAR

STARTCHAR Y
ENCODING 89
SWIDTH 592 0
DWIDTH 14 0
BBX 12 14 1 0
BITMAP
C030
C030
6060
30C0
39C0
1F80
0F00
0600
0600
0600
0600
0600
0600
0600
ENDCHAR

STARTCHAR Z
ENCODING 90
SWIDTH 508 0
DWIDTH 12 0
BBX 10 14 1 0
BITMAP
FFC0
0180
0380
0300
0700
0600
0E00
1C00
1800
3800
3000
7000
6000
FFC0
ENDCHAR

STARTCHAR bracketleft
ENCODING 91
SWIDTH 296 0
DWIDTH 7 0
BBX 4 18 2 -2
BITMAP
F0
C0
C0
C0
C0
C0
C0
C0
C0
C0
C0
C0
C0
C0
C0
C0
C0
F0
ENDCHAR

STARTCHAR backslash
ENCODING 92
SWIDTH 465 0
DWIDTH 11 0
BBX 10 18 1 -2
BITMAP
C000
C000
6000
6000
3000
3000
1800
1800
0C00
0C00
0600
0600
0300
0300
0180
0180
00C0
00C0
ENDCHAR

STARTCHAR bracketright
ENCODING 93
SWIDTH 296 0
DWIDTH 7 0
BBX 4 18 1 -2
BITMAP
F0
30
30
30
30
30
30
30
30
30
30
30
30
30
30
30
30
F0
ENDCHAR

STARTCHAR asciicircum
ENCODING 94
SWIDTH 508 0
DWIDTH 12 0
BBX 8 4 2 10
BITMAP
18
3C
66
C3
ENDCHAR

STARTCHAR underscore
ENCODING 95
SWIDTH 423 0
DWIDTH 10 0
BBX 10 1 0 -1
BITMAP
FFC0
ENDCHAR

STARTCHAR grave
ENCODING 96
SWIDTH 254 0
DWIDTH 6 0
BBX 4 6 1 9
BITMAP
10
30
60
C0
C0
C0
ENDCHAR

STARTCHAR a
ENCODING 97
SWIDTH 465 0
DWIDTH 11 0
BBX 9 9 1 0
BITMAP
3F00
6180
6180
0180
7F80
C180
C180
C380
7D80
ENDCHAR

STARTCHAR b
ENCODING 98
SWIDTH 465 0
DWIDTH 11 0
BBX 9 14 1 0
BITMAP
C000
C000
C000
C000
C000
DE00
E300
C180
C180
C180
C180
C180
E300
DE00
ENDCHAR

STARTCHAR c
ENCODING 99
SWIDTH 423 0
DWIDTH 10 0
BBX 8 9 1 0
BITMAP
3E
63
C1
C0
C0
C0
C1
63
3E
ENDCHAR

STARTCHAR d
ENCODING 100
SWIDTH 465 0
DWIDTH 11 0
BBX 9 14 1 0
BITMAP
0180
0180
0180
0180
0180
3D80
6380
C180
C180
C180
C180
C180
6380
3D80
ENDCHAR

STARTCHAR e
ENCODING 101
SWIDTH 465 0
DWIDTH 11 0
BBX 9 9 1 0
BITMAP
3E00
6300
C180
C180
FF80
C000
C000
6180
3F00
ENDCHAR

STARTCHAR f
ENCODING 102
SWIDTH 296 0
DWIDTH 7 0
BBX 7 14 0 0
BITMAP
1E
30
30
30
30
FE
30
30
30
30
30
30
30
30
ENDCHAR

STARTCHAR g
ENCODING 103
SWIDTH 465 0
DWIDTH 11 0
BBX 9 13 1 -4
BITMAP
3D80
6380
C180
C180
C180
C180
C180
6380
3D80
0180
0180
6300
3E00
ENDCHAR

STARTCHAR h
ENCODING 104
SWIDTH 423 0
DWIDTH 10 0
BBX 8 14 1 0
BITMAP
C0
C0
C0
C0
C0
DE
E3
C3
C3
C3
C3
C3
C3
C3
ENDCHAR

STARTCHAR i
ENCODING 105
SWIDTH 254 0
DWIDTH 6 0
BBX 2 14 2 0
BITMAP
C0
C0
00
00
00
C0
C0
C0
C0
C0
C0
C0
C0
C0
ENDCHAR

STARTCHAR j
ENCODING 106
SWIDTH 254 0
DWIDTH 6 0
BBX 4 18 0 -4
BITMAP
30
30
00
00
00
30
30
30
30
30
30
30
30
30
30
30
30
E0
ENDCHAR

STARTCHAR k
ENCODING 107
SWIDTH 423 0
DWIDTH 10 0
BBX 8 14 1 0
BITMAP
C0
C0
C0
C0
C0
C3
C6
CC
D8
F0
D8
CC
C6
C3
ENDCHAR

STARTCHAR l
ENCODING 108
SWIDTH 254 0
DWIDTH 6 0
BBX 2 14 2 0
BITMAP
C0
C0
C0
C0
C0
C0
C0
C0
C0
C0
C0
C0
C0
C0
ENDCHAR

STARTCHAR m
ENCODING 109
SWIDTH 592 0
DWIDTH 14 0
BBX 12 9 1 0
BITMAP
DCE0
E730
C630
C630
C630
C630
C630
C630
C630
ENDCHAR

STARTCHAR n
ENCODING 110
SWIDTH 423 0
DWIDTH 10 0
BBX 8 9 1 0
BITMAP
DE
E3
C3
C3
C3
C3
C3
C3
C3
ENDCHAR

STARTCHAR o
ENCODING 111
SWIDTH 465 0
DWIDTH 11 0
BBX 9 9 1 0
BITMAP
3E00
6300
C180
C180
C180
C180
C180
6300
3E00
ENDCHAR

STARTCHAR p
ENCODING 112
SWIDTH 465 0
DWIDTH 11 0
BBX 9 13 1 -4
BITMAP
DE00
E300
C180
C180
C180
C180
C180
E300
DE00
C000
C000
C000
C000
ENDCHAR

STARTCHAR q
ENCODING 113
SWIDTH 465 0
DWIDTH 11 0
BBX 9 13 1 -4
BITMAP
3D80
6380
C180
C180
C180
C180
C180
6380
3D80
0180
0180
0180
0180
ENDCHAR

STARTCHAR r
ENCODING 114
SWIDTH 338 0
DWIDTH 8 0
BBX 6 9 1 0
BITMAP
DC
E0
C0
C0
C0
C0
C0
C0
C0
ENDCHAR

STARTCHAR s
ENCODING 115
SWIDTH 423 0
DWIDTH 10 0
BBX 8 9 1 0
BITMAP
7E
C3
C3
F0
3C
0F
C3
C3
7E
ENDCHAR

STARTCHAR t
ENCODING 116
SWIDTH 296 0
DWIDTH 7 0
BBX 7 12 0 0
BITMAP
10
30
30
FE
30
30
30
30
30
30
30
1E
ENDCHAR

STARTCHAR u
ENCODING 117
SWIDTH 423 0
DWIDTH 10 0
BBX 8 9 1 0
BITMAP
C3
C3
C3
C3
C3
C3
C3
C7
7B
ENDCHAR

STARTCHAR v
ENCODING 118
SWIDTH 465 0
DWIDTH 11 0
BBX 9 9 1 0
BITMAP
C180
C180
6300
6300
3600
3600
1C00
1C00
0800
ENDCHAR

STARTCHAR w
ENCODING 119
SWIDTH 592 0
DWIDTH 14 0
BBX 12 9 1 0
BITMAP
C630
C630
C630
6F60
6F60
6960
39C0
30C0
30C0
ENDCHAR

STARTCHAR x
ENCODING 120
SWIDTH 423 0
DWIDTH 10 0
BBX 10 9 0 0
BITMAP
C0C0
6180
3300
1E00
0C00
1E00
3300
6180
C0C0
ENDCHAR

STARTCHAR y
ENCODING 121
SWIDTH 465 0
DWIDTH 11 0
BBX 9 13 1 -4
BITMAP
C180
C180
6300
6300
3600
3600
1C00
1C00
1800
1800
3000
7000
6000
ENDCHAR

STARTCHAR z
ENCODING 122
SWIDTH 423 0
DWIDTH 10 0
BBX 8 9 1 0
BITMAP
FF
03
06
0C
18
30
60
C0
FF
ENDCHAR

STARTCHAR braceleft
ENCODING 123
SWIDTH 423 0
DWIDTH 10 0
BBX 8 18 1 -2
BITMAP
07
0C
18
18
18
18
18
30
E0
30
18
18
18
18
18
18
0C
07
ENDCHAR

STARTCHAR bar
ENCODING 124
SWIDTH 254 0
DWIDTH 6 0
BBX 2 16 2 -1
BITMAP
C0
C0
C0
C0
C0
C0
C0
00
00
C0
C0
C0
C0
C0
C0
C0
ENDCHAR

STARTCHAR braceright
ENCODING 125
SWIDTH 423 0
DWIDTH 10 0
BBX 8 18 1 -2
BITMAP
E0
30
18
18
18
18
18
0C
07
0C
18
18
18
18
18
18
30
E0
ENDCHAR

STARTCHAR asciitilde
ENCODING 126
SWIDTH 550 0
DWIDTH 13 0
BBX 11 4 1 5
BITMAP
7820
FE60
CFE0
83C0
ENDCHAR

STARTCHAR C000177
ENCODING 127
SWIDTH 677 0
DWIDTH 16 0
BBX 16 23 0 -5
BITMAP
AAAA
5555
AAAA
5555
AAAA
5555
AAAA
5555
AAAA
5555
AAAA
5555
AAAA
5555
AAAA
5555
AAAA
5555
AAAA
5555
AAAA
5555
AAAA
ENDCHAR

STARTCHAR NoBreakSpace
ENCODING 160
SWIDTH 254 0
DWIDTH 6 0
BBX 1 1 0 0
BITMAP
00
ENDCHAR

STARTCHAR CyrillicIo
ENCODING 161
SWIDTH 465 0
DWIDTH 11 0
BBX 9 18 1 0
BITMAP
6600
6600
0000
0000
FF80
C000
C000
C000
C000
C000
FF80
C000
C000
C000
C000
C000
C000
FF80
ENDCHAR

STARTCHAR SerboCroatDje
ENCODING 162
SWIDTH 592 0
DWIDTH 14 0
BBX 13 14 0 0
BITMAP
FFF0
0600
0600
0600
0600
0600
07F0
0618
0618
0618
0618
0618
0630
0660
ENDCHAR

STARTCHAR MacedonianGje
ENCODING 163
SWIDTH 465 0
DWIDTH 11 0
BBX 9 18 1 0
BITMAP
0700
0E00
1800
0000
FF80
C000
C000
C000
C000
C000
C000
C000
C000
C000
C000
C000
C000
C000
ENDCHAR

STARTCHAR UkrainianIe
ENCODING 164
SWIDTH 592 0
DWIDTH 14 0
BBX 12 14 1 0
BITMAP
0F80
38E0
6030
6030
C000
C000
FE00
C000
C000
C000
6030
6030
38E0
0F80
ENDCHAR

STARTCHAR MacedonianDze
ENCODING 165
SWIDTH 550 0
DWIDTH 13 0
BBX 11 14 1 0
BITMAP
1E00
7380
C1C0
C0C0
E000
7800
1E00
0780
01C0
00E0
C060
E060
71C0
1F00
ENDCHAR

STARTCHAR ByeloRuUkrainI
ENCODING 166
SWIDTH 254 0
DWIDTH 6 0
BBX 2 14 2 0
BITMAP
C0
C0
C0
C0
C0
C0
C0
C0
C0
C0
C0
C0
C0
C0
ENDCHAR

STARTCHAR UkrainianYi
ENCODING 167
SWIDTH 254 0
DWIDTH 6 0
BBX 6 18 0 0
BITMAP
CC
CC
00
00
30
30
30
30
30
30
30
30
30
30
30
30
30
30
ENDCHAR

STARTCHAR CyrillicJe
ENCODING 168
SWIDTH 423 0
DWIDTH 10 0
BBX 8 14 1 0
BITMAP
03
03
03
03
03
03
03
03
03
03
C3
C3
66
3C
ENDCHAR

STARTCHAR CyrillicLje
ENCODING 169
SWIDTH 804 0
DWIDTH 19 0
BBX 18 14 0 0
BITMAP
0FE000
186000
306000
306000
306000
306000
307F00
306180
3060C0
3060C0
3060C0
3060C0
606180
C07F00
ENDCHAR

STARTCHAR CyrillicNje
ENCODING 170
SWIDTH 804 0
DWIDTH 19 0
BBX 17 14 1 0
BITMAP
C0C000
C0C000
C0C000
C0C000
C0C000
C0C000
FFFE00
C0C300
C0C180
C0C180
C0C180
C0C180
C0C300
C0FE00
ENDCHAR

STARTCHAR SerboCroatTshe
ENCODING 171
SWIDTH 592 0
DWIDTH 14 0
BBX 13 14 0 0
BITMAP
FFF0
0600
0600
0600
0600
0600
07F0
0618
0618
0618
0618
0618
0618
0618
ENDCHAR

STARTCHAR MacedonianKje
ENCODING 172
SWIDTH 550 0
DWIDTH 13 0
BBX 11 18 1 0
BITMAP
0700
0E00
1800
0000
C0C0
C180
C300
C600
CC00
D800
F000
F800
DC00
CE00
C700
C380
C1C0
C0E0
ENDCHAR

STARTCHAR SoftHyphen
ENCODING 173
SWIDTH 677 0
DWIDTH 16 0
BBX 12 2 2 6
BITMAP
FFF0
FFF0
ENDCHAR

STARTCHAR ByeloRusShortU
ENCODING 174
SWIDTH 508 0
DWIDTH 12 0
BBX 10 18 1 0
BITMAP
6180
3300
1E00
0000
C0C0
C0C0
C0C0
C0C0
C0C0
C0C0
C0C0
60C0
3FC0
00C0
00C0
C0C0
6180
3F00
ENDCHAR

STARTCHAR CyrillicDzhe
ENCODING 175
SWIDTH 592 0
DWIDTH 14 0
BBX 12 17 1 -3
BITMAP
C030
C030
C030
C030
C030
C030
C030
C030
C030
C030
C030
C030
C030
FFF0
0600
0600
0600
ENDCHAR

STARTCHAR CyrillicA
ENCODING 176
SWIDTH 592 0
DWIDTH 14 0
BBX 12 14 1 0
BITMAP
0600
0600
0F00
0F00
1980
1980
1980
30C0
30C0
7FE0
6060
6060
C030
C030
ENDCHAR

STARTCHAR CyrillicBe
ENCODING 177
SWIDTH 508 0
DWIDTH 12 0
BBX 10 14 1 0
BITMAP
FF80
C000
C000
C000
C000
C000
FF00
C180
C0C0
C0C0
C0C0
C0C0
C180
FF00
ENDCHAR

STARTCHAR CyrillicVe
ENCODING 178
SWIDTH 508 0
DWIDTH 12 0
BBX 10 14 1 0
BITMAP
FE00
C300
C180
C180
C180
C300
FF00
C180
C0C0
C0C0
C0C0
C0C0
C180
FF00
ENDCHAR

STARTCHAR CyrillicGhe
ENCODING 179
SWIDTH 465 0
DWIDTH 11 0
BBX 9 14 1 0
BITMAP
FF80
C000
C000
C000
C000
C000
C000
C000
C000
C000
C000
C000
C000
C000
ENDCHAR

STARTCHAR CyrillicDe
ENCODING 180
SWIDTH 635 0
DWIDTH 15 0
BBX 13 16 1 -2
BITMAP
0FE0
1860
3060
3060
3060
3060
3060
3060
3060
3060
3060
3060
3060
FFF8
C018
C018
ENDCHAR

STARTCHAR CyrillicIe
ENCODING 181
SWIDTH 465 0
DWIDTH 11 0
BBX 9 14 1 0
BITMAP
FF80
C000
C000
C000
C000
C000
FF80
C000
C000
C000
C000
C000
C000
FF80
ENDCHAR

STARTCHAR CyrillicZhe
ENCODING 182
SWIDTH 847 0
DWIDTH 20 0
BBX 20 14 0 0
BITMAP
606060
3060C0
186180
0C6300
066600
036C00
01F800
03FC00
076E00
0E6700
1C6380
3861C0
7060E0
E06070
ENDCHAR

STARTCHAR CyrillicZe
ENCODING 183
SWIDTH 508 0
DWIDTH 12 0
BBX 10 14 1 0
BITMAP
1E00
7380
C0C0
C0C0
00C0
0180
0F00
0180
00C0
00C0
C0C0
C0C0
7380
1E00
ENDCHAR

STARTCHAR CyrillicI
ENCODING 184
SWIDTH 550 0
DWIDTH 13 0
BBX 11 14 1 0
BITMAP
C060
C0E0
C0E0
C1E0
C360
C360
C660
CC60
CC60
D860
F060
F060
E060
C060
ENDCHAR

STARTCHAR CyrillicShortI
ENCODING 185
SWIDTH 550 0
DWIDTH 13 0
BBX 11 18 1 0
BITMAP
3180
1B00
0E00
0000
C060
C0E0
C0E0
C1E0
C360
C360
C660
CC60
CC60
D860
F060
F060
E060
C060
ENDCHAR

STARTCHAR CyrillicKa
ENCODING 186
SWIDTH 550 0
DWIDTH 13 0
BBX 11 14 1 0
BITMAP
C0C0
C180
C300
C600
CC00
D800
F000
F800
DC00
CE00
C700
C380
C1C0
C0E0
ENDCHAR

STARTCHAR CyrillicEl
ENCODING 187
SWIDTH 508 0
DWIDTH 12 0
BBX 11 14 0 0
BITMAP
0FE0
1860
3060
3060
3060
3060
3060
3060
3060
3060
3060
3060
6060
C060
ENDCHAR

STARTCHAR CyrillicEm
ENCODING 188
SWIDTH 635 0
DWIDTH 15 0
BBX 13 14 1 0
BITMAP
C018
C018
E038
E038
F078
F078
D8D8
D8D8
CD98
CF98
C718
C718
C218
C018
ENDCHAR

STARTCHAR CyrillicEn
ENCODING 189
SWIDTH 550 0
DWIDTH 13 0
BBX 11 14 1 0
BITMAP
C060
C060
C060
C060
C060
C060
FFE0
C060
C060
C060
C060
C060
C060
C060
ENDCHAR

STARTCHAR CyrillicO
ENCODING 190
SWIDTH 635 0
DWIDTH 15 0
BBX 13 14 1 0
BITMAP
0F80
38E0
6030
6030
C018
C018
C018
C018
C018
C018
6030
6030
38E0
0F80
ENDCHAR

STARTCHAR CyrillicPe
ENCODING 191
SWIDTH 550 0
DWIDTH 13 0
BBX 11 14 1 0
BITMAP
FFE0
C060
C060
C060
C060
C060
C060
C060
C060
C060
C060
C060
C060
C060
ENDCHAR

STARTCHAR CyrillicEr
ENCODING 192
SWIDTH 465 0
DWIDTH 11 0
BBX 9 14 1 0
BITMAP
FE00
C300
C180
C180
C180
C180
C300
FE00
C000
C000
C000
C000
C000
C000
ENDCHAR

STARTCHAR CyrillicEs
ENCODING 193
SWIDTH 592 0
DWIDTH 14 0
BBX 12 14 1 0
BITMAP
0F80
38E0
6030
6030
C000
C000
C000
C000
C000
C000
6030
6030
38E0
0F80
ENDCHAR

STARTCHAR CyrillicTe
ENCODING 194
SWIDTH 508 0
DWIDTH 12 0
BBX 12 14 0 0
BITMAP
FFF0
0600
0600
0600
0600
0600
0600
0600
0600
0600
0600
0600
0600
0600
ENDCHAR

STARTCHAR CyrillicU
ENCODING 195
SWIDTH 508 0
DWIDTH 12 0
BBX 10 14 1 0
BITMAP
C0C0
C0C0
C0C0
C0C0
C0C0
C0C0
C0C0
60C0
3FC0
00C0
00C0
C0C0
6180
3F00
ENDCHAR

STARTCHAR CyrillicEf
ENCODING 196
SWIDTH 677 0
DWIDTH 16 0
BBX 14 14 1 0
BITMAP
0300
3FF0
6318
C30C
C30C
C30C
C30C
C30C
6318
3FF0
0300
0300
0300
0300
ENDCHAR

STARTCHAR CyrillicHa
ENCODING 197
SWIDTH 635 0
DWIDTH 15 0
BBX 15 14 0 0
BITMAP
E00E
701C
3838
1C70
0EE0
07C0
0380
0380
07C0
0EE0
1C70
3838
701C
E00E
ENDCHAR

STARTCHAR CyrillicTse
ENCODING 198
SWIDTH 635 0
DWIDTH 15 0
BBX 13 16 1 -2
BITMAP
C060
C060
C060
C060
C060
C060
C060
C060
C060
C060
C060
C060
C060
FFF8
0018
0018
ENDCHAR

STARTCHAR CyrillicChe
ENCODING 199
SWIDTH 550 0
DWIDTH 13 0
BBX 11 14 1 0
BITMAP
C060
C060
C060
C060
C060
C060
C060
E060
7FE0
0060
0060
0060
0060
0060
ENDCHAR

STARTCHAR CyrillicSha
ENCODING 200
SWIDTH 592 0
DWIDTH 14 0
BBX 12 14 1 0
BITMAP
C630
C630
C630
C630
C630
C630
C630
C630
C630
C630
C630
C630
C630
FFF0
ENDCHAR

STARTCHAR CyrillicShcha
ENCODING 201
SWIDTH 677 0
DWIDTH 16 0
BBX 14 16 1 -2
BITMAP
C630
C630
C630
C630
C630
C630
C630
C630
C630
C630
C630
C630
C630
FFFC
000C
000C
ENDCHAR

STARTCHAR CyrillHardSign
ENCODING 202
SWIDTH 592 0
DWIDTH 14 0
BBX 13 14 0 0
BITMAP
F800
1800
1800
1800
1800
1800
1FE0
1830
1818
1818
1818
1818
1830
1FE0
ENDCHAR

STARTCHAR CyrillicYeru
ENCODING 203
SWIDTH 677 0
DWIDTH 16 0
BBX 14 14 1 0
BITMAP
C00C
C00C
C00C
C00C
C00C
C00C
FF0C
C18C
C0CC
C0CC
C0CC
C0CC
C18C
FF0C
ENDCHAR

STARTCHAR CyrillSoftSign
ENCODING 204
SWIDTH 508 0
DWIDTH 12 0
BBX 10 14 1 0
BITMAP
C000
C000
C000
C000
C000
C000
FF00
C180
C0C0
C0C0
C0C0
C0C0
C180
FF00
ENDCHAR

STARTCHAR CyrillicE
ENCODING 205
SWIDTH 592 0
DWIDTH 14 0
BBX 12 14 1 0
BITMAP
1F00
71C0
C060
C060
0030
0030
1FF0
0030
0030
0030
C060
C060
71C0
1F00
ENDCHAR

STARTCHAR CyrillicYu
ENCODING 206
SWIDTH 804 0
DWIDTH 19 0
BBX 17 14 1 0
BITMAP
C0F800
C38E00
C60300
C60300
CC0180
CC0180
CC0180
FC0180
CC0180
CC0180
C60300
C60300
C38E00
C0F800
ENDCHAR

STARTCHAR CyrillicYa
ENCODING 207
SWIDTH 465 0
DWIDTH 11 0
BBX 9 14 1 0
BITMAP
3F80
6180
C180
C180
C180
C180
6180
3F80
3180
3180
6180
6180
C180
C180
ENDCHAR

STARTCHAR cyrillicA
ENCODING 208
SWIDTH 465 0
DWIDTH 11 0
BBX 9 9 1 0
BITMAP
3F00
6180
6180
0180
7F80
C180
C180
C380
7D80
ENDCHAR

STARTCHAR cyrillicBe
ENCODING 209
SWIDTH 465 0
DWIDTH 11 0
BBX 9 14 1 0
BITMAP
0380
3F00
6000
6000
C000
DE00
E300
C180
C180
C180
C180
C180
6300
1E00
ENDCHAR

STARTCHAR cyrillicVe
ENCODING 210
SWIDTH 423 0
DWIDTH 10 0
BBX 8 9 1 0
BITMAP
FE
C3
C3
C3
FE
C3
C3
C3
FE
ENDCHAR

STARTCHAR cyrillicGhe
ENCODING 211
SWIDTH 338 0
DWIDTH 8 0
BBX 7 9 1 0
BITMAP
FE
C0
C0
C0
C0
C0
C0
C0
C0
ENDCHAR

STARTCHAR cyrillicDe
ENCODING 212
SWIDTH 508 0
DWIDTH 12 0
BBX 12 11 0 -2
BITMAP
0FC0
18C0
30C0
30C0
30C0
30C0
30C0
30C0
FFF0
C030
C030
ENDCHAR

STARTCHAR cyrillicIe
ENCODING 213
SWIDTH 465 0
DWIDTH 11 0
BBX 9 9 1 0
BITMAP
3E00
6300
C180
C180
FF80
C000
C000
6180
3F00
ENDCHAR

STARTCHAR cyrillicZhe
ENCODING 214
SWIDTH 677 0
DWIDTH 16 0
BBX 14 9 1 0
BITMAP
C30C
6318
3330
1B60
0FC0
1B60
3330
6318
C30C
ENDCHAR

STARTCHAR cyrillicZe
ENCODING 215
SWIDTH 423 0
DWIDTH 10 0
BBX 8 9 1 0
BITMAP
7E
C3
C3
03
0E
03
C3
C3
7E
ENDCHAR

STARTCHAR cyrillicI
ENCODING 216
SWIDTH 423 0
DWIDTH 10 0
BBX 8 9 1 0
BITMAP
C3
C3
C7
CF
DB
F3
E3
C3
C3
ENDCHAR

STARTCHAR cyrillicShortI
ENCODING 217
SWIDTH 423 0
DWIDTH 10 0
BBX 8 14 1 0
BITMAP
C3
66
3C
00
00
C3
C3
C7
CF
DB
F3
E3
C3
C3
ENDCHAR

STARTCHAR cyrillicKa
ENCODING 218
SWIDTH 423 0
DWIDTH 10 0
BBX 8 9 1 0
BITMAP
C3
C6
CC
D8
F0
D8
CC
C6
C3
ENDCHAR

STARTCHAR cyrillicEl
ENCODING 219
SWIDTH 423 0
DWIDTH 10 0
BBX 9 9 0 0
BITMAP
1F80
3180
6180
6180
6180
6180
6180
6180
C180
ENDCHAR

STARTCHAR cyrillicEm
ENCODING 220
SWIDTH 592 0
DWIDTH 14 0
BBX 12 9 1 0
BITMAP
C030
E070
F0F0
D9B0
CF30
C630
C030
C030
C030
ENDCHAR

STARTCHAR cyrillicEn
ENCODING 221
SWIDTH 423 0
DWIDTH 10 0
BBX 8 9 1 0
BITMAP
C3
C3
C3
C3
FF
C3
C3
C3
C3
ENDCHAR

STARTCHAR cyrillicO
ENCODING 222
SWIDTH 465 0
DWIDTH 11 0
BBX 9 9 1 0
BITMAP
3E00
6300
C180
C180
C180
C180
C180
6300
3E00
ENDCHAR

STARTCHAR cyrillicPe
ENCODING 223
SWIDTH 423 0
DWIDTH 10 0
BBX 8 9 1 0
BITMAP
FF
C3
C3
C3
C3
C3
C3
C3
C3
ENDCHAR

STARTCHAR cyrillicEr
ENCODING 224
SWIDTH 465 0
DWIDTH 11 0
BBX 9 13 1 -4
BITMAP
DE00
E300
C180
C180
C180
C180
C180
E300
DE00
C000
C000
C000
C000
ENDCHAR

STARTCHAR cyrillicEs
ENCODING 225
SWIDTH 423 0
DWIDTH 10 0
BBX 8 9 1 0
BITMAP
3E
63
C1
C0
C0
C0
C1
63
3E
ENDCHAR

STARTCHAR cyrillicTe
ENCODING 226
SWIDTH 338 0
DWIDTH 8 0
BBX 8 9 0 0
BITMAP
FF
18
18
18
18
18
18
18
18
ENDCHAR

STARTCHAR cyrillicU
ENCODING 227
SWIDTH 465 0
DWIDTH 11 0
BBX 9 13 1 -4
BITMAP
C180
C180
6300
6300
3600
3600
1C00
1C00
1800
1800
3000
7000
6000
ENDCHAR

STARTCHAR cyrillicEf
ENCODING 228
SWIDTH 677 0
DWIDTH 16 0
BBX 14 14 1 -4
BITMAP
0300
3FF0
6318
C30C
C30C
C30C
C30C
C30C
6318
3FF0
0300
0300
0300
0300
ENDCHAR

STARTCHAR cyrillicHa
ENCODING 229
SWIDTH 423 0
DWIDTH 10 0
BBX 10 9 0 0
BITMAP
C0C0
6180
3300
1E00
0C00
1E00
3300
6180
C0C0
ENDCHAR

STARTCHAR cyrillicTse
ENCODING 230
SWIDTH 508 0
DWIDTH 12 0
BBX 10 11 1 -2
BITMAP
C300
C300
C300
C300
C300
C300
C300
C300
FFC0
00C0
00C0
ENDCHAR

STARTCHAR cyrillicChe
ENCODING 231
SWIDTH 423 0
DWIDTH 10 0
BBX 8 9 1 0
BITMAP
C3
C3
C3
C3
7F
03
03
03
03
ENDCHAR

STARTCHAR cyrillicSha
ENCODING 232
SWIDTH 508 0
DWIDTH 12 0
BBX 10 9 1 0
BITMAP
CCC0
CCC0
CCC0
CCC0
CCC0
CCC0
CCC0
CCC0
FFC0
ENDCHAR

STARTCHAR cyrillicShcha
ENCODING 233
SWIDTH 592 0
DWIDTH 14 0
BBX 12 11 1 -2
BITMAP
CCC0
CCC0
CCC0
CCC0
CCC0
CCC0
CCC0
CCC0
FFF0
0030
0030
ENDCHAR

STARTCHAR cyrillHardSign
ENCODING 234
SWIDTH 423 0
DWIDTH 10 0
BBX 9 9 0 0
BITMAP
F000
3000
3000
3000
3F00
3180
3180
3180
3F00
ENDCHAR

STARTCHAR cyrillicYeru
ENCODING 235
SWIDTH 550 0
DWIDTH 13 0
BBX 11 9 1 0
BITMAP
C060
C060
C060
C060
FC60
C660
C660
C660
FC60
ENDCHAR

STARTCHAR cyrillSoftSign
ENCODING 236
SWIDTH 381 0
DWIDTH 9 0
BBX 7 9 1 0
BITMAP
C0
C0
C0
C0
FC
C6
C6
C6
FC
ENDCHAR

STARTCHAR cyrillicE
ENCODING 237
SWIDTH 423 0
DWIDTH 10 0
BBX 8 9 1 0
BITMAP
7C
C6
83
03
3F
03
83
C6
7C
ENDCHAR

STARTCHAR cyrillicYu
ENCODING 238
SWIDTH 635 0
DWIDTH 15 0
BBX 13 9 1 0
BITMAP
C3E0
C630
CC18
CC18
FC18
CC18
CC18
C630
C3E0
ENDCHAR

STARTCHAR cyrillicYa
ENCODING 239
SWIDTH 423 0
DWIDTH 10 0
BBX 8 9 1 0
BITMAP
3F
63
C3
C3
63
3F
33
63
C3
ENDCHAR

STARTCHAR NumberAcronym
ENCODING 240
SWIDTH 762 0
DWIDTH 18 0
BBX 17 14 1 0
BITMAP
C06000
E06000
E06000
F06700
D86D80
D86880
CC6D80
C66700
C66000
C36000
C1EF80
C1E000
C0E000
C06000
ENDCHAR

STARTCHAR cyrillicIo
ENCODING 241
SWIDTH 465 0
DWIDTH 11 0
BBX 9 13 1 0
BITMAP
6300
6300
0000
0000
3E00
6300
C180
C180
FF80
C000
C000
6180
3F00
ENDCHAR

STARTCHAR serboCroatDje
ENCODING 242
SWIDTH 423 0
DWIDTH 10 0
BBX 9 17 0 -3
BITMAP
6000
6000
F800
6000
6000
6F00
7180
6180
6180
6180
6180
6180
6180
6180
0180
0300
0600
ENDCHAR

STARTCHAR macedonianGje
ENCODING 243
SWIDTH 338 0
DWIDTH 8 0
BBX 7 14 1 0
BITMAP
0E
1C
30
00
00
FE
C0
C0
C0
C0
C0
C0
C0
C0
ENDCHAR

STARTCHAR ukrainianIe
ENCODING 244
SWIDTH 423 0
DWIDTH 10 0
BBX 8 9 1 0
BITMAP
3E
63
C1
C0
FC
C0
C1
63
3E
ENDCHAR

STARTCHAR macedonianDze
ENCODING 245
SWIDTH 423 0
DWIDTH 10 0
BBX 8 9 1 0
BITMAP
7E
C3
C3
F0
3C
0F
C3
C3
7E
ENDCHAR

STARTCHAR byeloRuUkrainI
ENCODING 246
SWIDTH 254 0
DWIDTH 6 0
BBX 2 13 2 0
BITMAP
C0
C0
00
00
C0
C0
C0
C0
C0
C0
C0
C0
C0
ENDCHAR

STARTCHAR ukrainianYi
ENCODING 247
SWIDTH 254 0
DWIDTH 6 0
BBX 6 13 0 0
BITMAP
CC
CC
00
00
30
30
30
30
30
30
30
30
30
ENDCHAR

STARTCHAR cyrillicJe
ENCODING 248
SWIDTH 254 0
DWIDTH 6 0
BBX 4 17 0 -4
BITMAP
30
30
00
00
30
30
30
30
30
30
30
30
30
30
30
30
E0
ENDCHAR

STARTCHAR cyrillicLje
ENCODING 249
SWIDTH 635 0
DWIDTH 15 0
BBX 14 9 0 0
BITMAP
1F80
3180
6180
6180
61F8
618C
618C
618C
C1F8
ENDCHAR

STARTCHAR cyrillicNje
ENCODING 250
SWIDTH 635 0
DWIDTH 15 0
BBX 13 9 1 0
BITMAP
C300
C300
C300
C300
FFF0
C318
C318
C318
C3F0
ENDCHAR

STARTCHAR serboCroatTshe
ENCODING 251
SWIDTH 423 0
DWIDTH 10 0
BBX 9 14 0 0
BITMAP
6000
6000
6000
F800
6000
6F00
7180
6180
6180
6180
6180
6180
6180
6180
ENDCHAR

STARTCHAR macedonianKje
ENCODING 252
SWIDTH 423 0
DWIDTH 10 0
BBX 8 14 1 0
BITMAP
0E
1C
30
00
00
C3
C6
CC
D8
F0
D8
CC
C6
C3
ENDCHAR

STARTCHAR ParagraphSign
ENCODING 253
SWIDTH 381 0
DWIDTH 9 0
BBX 7 16 1 -2
BITMAP
7C
C6
C6
E0
70
78
DC
CE
E6
76
3C
1C
0E
C6
C6
7C
ENDCHAR

STARTCHAR byeloRusShortU
ENCODING 254
SWIDTH 465 0
DWIDTH 11 0
BBX 9 18 1 -4
BITMAP
6300
3600
1C00
0000
0000
C180
C180
6300
6300
3600
3600
1C00
1C00
1800
1800
3000
7000
6000
ENDCHAR

STARTCHAR cyrillicDzhe
ENCODING 255
SWIDTH 423 0
DWIDTH 10 0
BBX 8 11 1 -2
BITMAP
C3
C3
C3
C3
C3
C3
C3
C3
FF
18
18
ENDCHAR
ENDFONT
